# xmcd CD database file
#
# Track frame offsets:
#	150
#	2626
#	13317
#	27622
#	45795
#	61419
#	75472
#	92802
#	108013
#	123429
#	143845
#	147018
#	163242
#	179291
#
# Disc length: 2550 seconds
#
# Revision: 10
# Processed by: cddbd v1.5.2PL0 Copyright (c) Steve Scherf et al.
# Submitted via: CDex 2.21
#
DISCID=af09f40e
DTITLE=Lari White - Don't Fence Me In
DYEAR=1996
DGENRE=Country
TTITLE0=Don't Fence Me In (with Shelby Lynne and Trisha Yearwood)
TTITLE1=Wild At Heart
TTITLE2=Ready, Willing And Able
TTITLE3=Ghost Of A Chance
TTITLE4=The Test
TTITLE5=Ain't Gonna Worry About Love No More
TTITLE6=Next To Love
TTITLE7=Something Blue
TTITLE8=Do It Again
TTITLE9=I've Been Waiting For Your Love
TTITLE10=Soul Searchin' Blues
TTITLE11=Woman Of The World
TTITLE12=Don't Fence Me In (Reprise)
TTITLE13=Soul Searchin' Blues (Reprise)
EXTD=YEAR: 1996
EXTT0=
EXTT1=
EXTT2=
EXTT3=
EXTT4=
EXTT5=
EXTT6=
EXTT7=
EXTT8=
EXTT9=
EXTT10=
EXTT11=
EXTT12=
EXTT13=
PLAYORDER=
